<?xml version="1.0" encoding="UTF-8"?>
<svg width="24px" height="24px" viewBox="0 0 24 24" version="1.1" xmlns="http://www.w3.org/2000/svg" xmlns:xlink="http://www.w3.org/1999/xlink">
    <title>ic_square_add_lined</title>
    <g id="ic_square_add_lined" stroke="none" stroke-width="1" fill="none" fill-rule="evenodd">
        <g id="编组">
            <rect id="矩形" fill="#D8D8D8" opacity="0" x="0" y="0" width="24" height="24"></rect>
            <path d="M18.77675,2.25005 C20.3689916,2.25005 21.6707239,3.49491647 21.7616738,5.06437653 L21.76675,5.24005 L21.76675,14.17105 C21.76675,14.8864545 21.5138956,15.5656088 21.0612897,16.1005067 C20.7937317,16.4167116 20.3204983,16.4561478 20.0042933,16.1885897 C19.6880884,15.9210317 19.6486522,15.4477983 19.9162103,15.1315933 C20.1092592,14.9034446 20.2289065,14.6235595 20.2591517,14.3229426 L20.26675,14.17105 L20.26675,5.24005 C20.26675,4.46566276 19.6757235,3.82908403 18.9202285,3.75687195 L18.77675,3.75005 L9.71475,3.75005 C8.94036276,3.75005 8.30378403,4.34107655 8.23157195,5.09657148 L8.22425,5.23005 L15.76125,5.23095 C17.3536906,5.23095 18.6552381,6.47600839 18.7461746,8.04619373 L18.75125,8.22195 L18.75125,18.75995 C18.75125,20.3521916 17.5063835,21.6539239 15.9369235,21.7448738 L15.76125,21.74995 L5.22325,21.74995 C3.63100835,21.74995 2.32927611,20.5050835 2.23832615,18.9356235 L2.23325,18.75995 L2.23325,8.22195 C2.23325,6.69779069 3.37810464,5.42318586 4.88078878,5.25083499 C5.29230444,5.20363606 5.66416608,5.49897312 5.71136501,5.91048878 C5.75856394,6.32200444 5.46322688,6.69386608 5.05171122,6.74106501 C4.35083551,6.82145219 3.80529795,7.38507227 3.73984355,8.08108596 L3.73325,8.22195 L3.73325,18.75995 C3.73325,19.5343372 4.32427655,20.170916 5.07977148,20.243128 L5.22325,20.24995 L15.76125,20.24995 C16.5356372,20.24995 17.172216,19.6589235 17.244428,18.9034285 L17.25125,18.75995 L17.25125,8.22195 C17.25125,7.44671842 16.6603145,6.80999888 15.9047446,6.73777316 L15.76125,6.73095 L7.47425,6.73095 C7.39620976,6.73095 7.32095343,6.71903067 7.25020218,6.69691319 C7.17719564,6.67395001 7.10921035,6.64033156 7.04787485,6.59779873 C6.85237388,6.4627514 6.72425,6.23681317 6.72425,5.98095 L6.72475,5.24005 C6.72475,3.64780835 7.96961647,2.34607611 9.53907653,2.25512615 L9.71475,2.25005 L18.77675,2.25005 Z M10.49225,9.24045 C10.8719458,9.24045 11.185741,9.52260388 11.2354034,9.88867944 L11.24225,9.99045 L11.24225,12.74045 L13.99225,12.74045 C14.4064636,12.74045 14.74225,13.0762364 14.74225,13.49045 C14.74225,13.8701458 14.4600961,14.183941 14.0940206,14.2336034 L13.99225,14.24045 L11.24225,14.24045 L11.24225,16.99045 C11.24225,17.4046636 10.9064636,17.74045 10.49225,17.74045 C10.1125542,17.74045 9.79875904,17.4582961 9.74909662,17.0922206 L9.74225,16.99045 L9.74225,14.24045 L6.99225,14.24045 C6.57803644,14.24045 6.24225,13.9046636 6.24225,13.49045 C6.24225,13.1107542 6.52440388,12.796959 6.89047944,12.7472966 L6.99225,12.74045 L9.74225,12.74045 L9.74225,9.99045 C9.74225,9.57623644 10.0780364,9.24045 10.49225,9.24045 Z" id="形状结合" fill="#191919"></path>
        </g>
    </g>
</svg>