<svg xmlns="http://www.w3.org/2000/svg" xmlns:xlink="http://www.w3.org/1999/xlink" width="24" height="24" viewBox="0 0 48 48" version="1.1">
    <title>ic_public_broom-清除/base/ic_public_broom</title>
    <g id="ic_public_broom-清除/base/ic_public_broom" stroke="none" stroke-width="3" fill="none" fill-rule="evenodd">
        <path d="M1.5054679,23.9816777 C1.5054679,20.4665945 1.49316512,16.9515113 1.5054679,13.4364281 C1.49839598,11.7354825 1.70745964,10.0405302 2.1276372,8.39228371 C3.04858836,4.90356362 5.32108808,2.83317961 8.80629066,2.0299831 C10.5538164,1.65241445 12.3387234,1.4755157 14.1263654,1.50272062 C20.8671186,1.50272062 27.6084577,1.50272062 34.3503826,1.50272062 C36.0530469,1.49215117 37.7507765,1.68688567 39.4068263,2.08270935 C42.9974813,2.96148015 45.1522258,5.23573899 45.9729972,8.81409369 C46.3419987,10.5052846 46.5182902,12.2328244 46.4985018,13.9636906 C46.4985018,20.7770935 46.4985018,27.5910823 46.4985018,34.405657 C46.5077071,36.0919093 46.3135624,37.7731207 45.920271,39.412893 C45.0415008,43.0053081 42.7566983,45.1495088 39.1783461,45.9702807 C37.4305962,46.3464204 35.6458526,46.5233029 33.8582713,46.4975432 C27.1456387,46.4975432 20.433592,46.4975432 13.7221311,46.4975432 C12.0064517,46.5115465 10.2952822,46.3197774 8.62526401,45.9263422 C5.01879113,45.0475714 2.85350138,42.7627673 2.03448756,39.1668372 C1.61619295,37.3389939 1.5054679,35.505878 1.5054679,33.6569443 C1.5054679,30.4324413 1.5054679,27.2073524 1.5054679,23.9816777 Z" id="path1" stroke-opacity="0" stroke="#FFFFFF" stroke-width="3" fill-opacity="0" fill="#FFFFFF" fill-rule="nonzero"/>
        <path d="M1.5054679,23.9816777 C1.5054679,20.4665945 1.49316512,16.9515113 1.5054679,13.4364281 C1.49839598,11.7354825 1.70745964,10.0405302 2.1276372,8.39228371 C3.04858836,4.90356362 5.32108808,2.83317961 8.80629066,2.0299831 C10.5538164,1.65241445 12.3387234,1.4755157 14.1263654,1.50272062 C20.8671186,1.50272062 27.6084577,1.50272062 34.3503826,1.50272062 C36.0530469,1.49215117 37.7507765,1.68688567 39.4068263,2.08270935 C42.9974813,2.96148015 45.1522258,5.23573899 45.9729972,8.81409369 C46.3419987,10.5052846 46.5182902,12.2328244 46.4985018,13.9636906 C46.4985018,20.7770935 46.4985018,27.5910823 46.4985018,34.405657 C46.5077071,36.0919093 46.3135624,37.7731207 45.920271,39.412893 C45.0415008,43.0053081 42.7566983,45.1495088 39.1783461,45.9702807 C37.4305962,46.3464204 35.6458526,46.5233029 33.8582713,46.4975432 C27.1456387,46.4975432 20.433592,46.4975432 13.7221311,46.4975432 C12.0064517,46.5115465 10.2952822,46.3197774 8.62526401,45.9263422 C5.01879113,45.0475714 2.85350138,42.7627673 2.03448756,39.1668372 C1.61619295,37.3389939 1.5054679,35.505878 1.5054679,33.6569443 C1.5054679,30.4324413 1.5054679,27.2073524 1.5054679,23.9816777 Z" id="path2" stroke-opacity="0" stroke="#FFFFFF" stroke-width="3" opacity="0.200000003" fill-rule="nonzero"/>
        <circle id="path3" fill-opacity="0" fill="#FFFFFF" cx="24" cy="24" r="24"/>
        <path d="M19.5,34 L19.5,40.2 C19.5,43.5137085 16.8137085,46.2 13.5,46.2 L11.5,46.2 L11.5,46.2 M31.5,34 L31.5,40.2 C31.5,43.5137085 28.8137085,46.2 25.5,46.2 L23.5,46.2 L23.5,46.2" id="path4" stroke="#191919" stroke-width="3" stroke-linecap="round" stroke-linejoin="round"/>
        <path d="M13.6023284,23.5 L43.5,23.5 L43.5,19 C43.5,15.6862915 40.8137085,13 37.5,13 L29.7267023,13 L29.7267023,13 L29.7267023,3.8 C29.7267023,2.6954305 28.8312718,1.8 27.7267023,1.8 L23.6782846,1.8 C22.5737151,1.8 21.6782846,2.6954305 21.6782846,3.8 L21.6782846,13 L21.6782846,13 L13.5610782,13 C10.2473699,12.9987445 7.56006052,15.6840177 7.55880462,18.997726 C7.55879742,19.0167371 7.55888057,19.035748 7.55903928,19.0547584 C7.67373289,32.0107365 7.65405313,39.3360177 7.5,41.0306021 C7.3233849,42.9733683 6.3233849,44.6965009 4.5,46.2 L37.5,46.2 C40.8137085,46.2 43.5,43.5137085 43.5,40.2 L43.5,29.496 L43.5,29.496" id="path5" stroke="#191919" stroke-width="3" stroke-linecap="round" stroke-linejoin="round"/>
        <path d="M7.5,28.2 L7.5,44.2 C7.5,45.3045695 6.6045695,46.2 5.5,46.2 L4.5,46.2 L4.5,46.2 L12.912,46.2 C14.5688542,46.2 15.912,44.8568542 15.912,43.2 L15.912,35 C15.912,33.3431458 17.2551458,32 18.912,32 C20.5688542,32 21.912,33.3431458 21.912,35 L21.912,43.704 C21.912,45.0825027 20.7945027,46.2 19.416,46.2 L19.416,46.2 L19.416,46.2 L26.112,46.2 C27.7688542,46.2 29.112,44.8568542 29.112,43.2 L29.112,35 C29.112,33.3431458 30.4551458,32 32.112,32 C33.7688542,32 35.112,33.3431458 35.112,35 L35.112,43.704 C35.112,45.0825027 33.9945027,46.2 32.616,46.2 L32.616,46.2 L32.616,46.2 L37.5,46.2 C40.8137085,46.2 43.5,43.5137085 43.5,40.2 L43.5,28.2 L43.5,28.2 L7.5,28.2 Z" id="path6" stroke-opacity="0" stroke="#FFFFFF" stroke-width="3" fill-opacity="0" fill="#FFFFFF" stroke-linejoin="round"/>
        <path d="M43.5,22.2 L43.5,19 C43.5,15.6862915 40.8137085,13 37.5,13 L29.8474652,13 L29.8474652,13 L29.8474652,3.8 C29.8474652,2.6954305 28.9520347,1.8 27.8474652,1.8 L23.5567928,1.8 C22.4570384,1.8 21.5636151,2.68792883 21.5568308,3.78766225 L21.5,13 L21.5,13 L13.5,13 C10.1862915,13 7.5,15.6862915 7.5,19 L7.5,22.2 L7.5,22.2 L43.5,22.2 Z" id="path7" stroke-opacity="0" stroke="#FFFFFF" stroke-width="3" fill-opacity="0" fill="#FFFFFF" stroke-linejoin="round"/>
    </g>
</svg>