<?xml version="1.0" encoding="UTF-8"?>
<svg width="24px" height="24px" viewBox="0 0 24 24" version="1.1" xmlns="http://www.w3.org/2000/svg" xmlns:xlink="http://www.w3.org/1999/xlink">
    <title>ic_merged_cell_lined</title>
    <g id="ic_merged_cell_lined" stroke="none" stroke-width="1" fill="none" fill-rule="evenodd">
        <g id="编组备份">
            <rect id="矩形" fill="#D8D8D8" fill-rule="nonzero" opacity="0" x="0" y="0" width="24" height="24"></rect>
            <path d="M9.75,3 C10.6681734,3 11.4211923,3.70742979 11.4941988,4.6071987 L11.5,4.75079076 L11.5,6.99322204 C11.5,7.40762277 11.1642136,7.74356093 10.75,7.74356093 C10.3703042,7.74356093 10.056509,7.46127956 10.0068466,7.09503858 L10,6.99322204 L10,4.75079076 C10,4.63239055 9.91776659,4.53320567 9.80732271,4.50728346 L9.75,4.5006778 L4.75,4.5006778 C4.63165327,4.5006778 4.53251318,4.58294837 4.50660268,4.69344215 L4.5,4.75079076 L4.5,11.126 L8.94701259,11.1260433 L8.10168008,10.2803301 C7.83319464,10.0118446 7.81082084,9.590445 8.03455872,9.29647385 L8.10168008,9.21966991 C8.37016553,8.95118446 8.79156517,8.92881068 9.08553632,9.15254855 L9.16234025,9.21966991 L11.2836606,11.3409903 C11.5521461,11.6094757 11.5745198,12.0308753 11.350782,12.3248465 L11.2836606,12.4016504 L9.16234025,14.5229708 C8.86944703,14.815864 8.39457331,14.815864 8.10168008,14.5229708 C7.83319464,14.2544853 7.81082084,13.8330857 8.03455872,13.5391145 L8.10168008,13.4623106 L8.93711309,12.6265239 L4.5,12.626 L4.5,19.2492092 C4.5,19.3676094 4.58223341,19.4667943 4.69267729,19.4927165 L4.75,19.4993222 L9.75,19.4993222 C9.86834673,19.4993222 9.96748682,19.4170516 9.99339732,19.3065578 L10,19.2492092 L10,16.4975147 C10,16.083114 10.3357864,15.7471758 10.75,15.7471758 C11.1296958,15.7471758 11.443491,16.0294572 11.4931534,16.3956982 L11.5,16.4975147 L11.5,19.2492092 C11.5,20.1677975 10.7928897,20.9211567 9.89352721,20.9941962 L9.75,21 L4.75,21 C3.8318266,21 3.07880766,20.2925702 3.0058012,19.3928013 L3,19.2492092 L3,4.75079076 C3,3.83220248 3.70711027,3.07884327 4.60647279,3.00580382 L4.75,3 L9.75,3 Z M19.25,3 L19.3935272,3.00580382 C20.2928897,3.07884327 21,3.83220248 21,4.75079076 L21,4.75079076 L21,19.2492092 L20.9941988,19.3928013 C20.9211923,20.2925702 20.1681734,21 19.25,21 L19.25,21 L14.25,21 L14.1064728,20.9941962 C13.2071103,20.9211567 12.5,20.1677975 12.5,19.2492092 L12.5,19.2492092 L12.5,16.4975147 L12.5068466,16.3956982 C12.556509,16.0294572 12.8703042,15.7471758 13.25,15.7471758 C13.6642136,15.7471758 14,16.083114 14,16.4975147 L14,16.4975147 L14,19.2492092 L14.0066027,19.3065578 C14.0325132,19.4170516 14.1316533,19.4993222 14.25,19.4993222 L14.25,19.4993222 L19.25,19.4993222 L19.3073227,19.4927165 C19.4177666,19.4667943 19.5,19.3676094 19.5,19.2492092 L19.5,19.2492092 L19.5,12.626 L15.0667194,12.6265239 L15.9021524,13.4623106 L15.9692738,13.5391145 C16.1930117,13.8330857 16.1706379,14.2544853 15.9021524,14.5229708 C15.6358859,14.7892373 15.2192222,14.8134434 14.9256107,14.5955889 L14.8414923,14.5229708 L12.7201719,12.4016504 L12.6530506,12.3248465 C12.4516865,12.0602725 12.4496728,11.6924813 12.6470096,11.425843 L12.7201719,11.3409903 L14.8414923,9.21966991 L14.9182962,9.15254855 C15.1828702,8.95118446 15.5506613,8.94917082 15.8172997,9.14650762 L15.9021524,9.21966991 L15.9692738,9.29647385 C16.1706379,9.56104788 16.1726515,9.92883899 15.9753147,10.1954774 L15.9021524,10.2803301 L15.0568199,11.1260433 L19.5,11.126 L19.5,4.75079076 L19.4933973,4.69344215 C19.4674868,4.58294837 19.3683467,4.5006778 19.25,4.5006778 L19.25,4.5006778 L14.25,4.5006778 L14.1926773,4.50728346 C14.0822334,4.53320567 14,4.63239055 14,4.75079076 L14,4.75079076 L14,6.99322204 L13.9931534,7.09503858 C13.943491,7.46127956 13.6296958,7.74356093 13.25,7.74356093 C12.8357864,7.74356093 12.5,7.40762277 12.5,6.99322204 L12.5,6.99322204 L12.5,4.75079076 L12.5058012,4.6071987 C12.5788077,3.70742979 13.3318266,3 14.25,3 L14.25,3 L19.25,3 Z" id="形状结合" fill="#191919"></path>
        </g>
    </g>
</svg>