<svg xmlns="http://www.w3.org/2000/svg" xmlns:xlink="http://www.w3.org/1999/xlink" width="20" height="20" viewBox="0 0 48 48" version="1.1">
    <title>ic_public_paintbrush-刷子/base/ic_public_paintbrush</title>
    <g id="ic_public_paintbrush-刷子/base/ic_public_paintbrush" stroke="none" stroke-width="3" fill="none" fill-rule="evenodd">
        <path d="M1.5054679,23.9816777 C1.5054679,20.4665945 1.49316512,16.9515113 1.5054679,13.4364281 C1.49839598,11.7354825 1.70745964,10.0405302 2.1276372,8.39228371 C3.04858836,4.90356362 5.32108808,2.83317961 8.80629066,2.0299831 C10.5538164,1.65241445 12.3387234,1.4755157 14.1263654,1.50272062 C20.8671186,1.50272062 27.6084577,1.50272062 34.3503826,1.50272062 C36.0530469,1.49215117 37.7507765,1.68688567 39.4068263,2.08270935 C42.9974813,2.96148015 45.1522258,5.23573899 45.9729972,8.81409369 C46.3419987,10.5052846 46.5182902,12.2328244 46.4985018,13.9636906 C46.4985018,20.7770935 46.4985018,27.5910823 46.4985018,34.405657 C46.5077071,36.0919093 46.3135624,37.7731207 45.920271,39.412893 C45.0415008,43.0053081 42.7566983,45.1495088 39.1783461,45.9702807 C37.4305962,46.3464204 35.6458526,46.5233029 33.8582713,46.4975432 C27.1456387,46.4975432 20.433592,46.4975432 13.7221311,46.4975432 C12.0064517,46.5115465 10.2952822,46.3197774 8.62526401,45.9263422 C5.01879113,45.0475714 2.85350138,42.7627673 2.03448756,39.1668372 C1.61619295,37.3389939 1.5054679,35.505878 1.5054679,33.6569443 C1.5054679,30.4324413 1.5054679,27.2073524 1.5054679,23.9816777 Z" id="path1" stroke-opacity="0" stroke="#FFFFFF" stroke-width="3" fill-opacity="0" fill="#FFFFFF" fill-rule="nonzero"/>
        <path d="M1.5054679,23.9816777 C1.5054679,20.4665945 1.49316512,16.9515113 1.5054679,13.4364281 C1.49839598,11.7354825 1.70745964,10.0405302 2.1276372,8.39228371 C3.04858836,4.90356362 5.32108808,2.83317961 8.80629066,2.0299831 C10.5538164,1.65241445 12.3387234,1.4755157 14.1263654,1.50272062 C20.8671186,1.50272062 27.6084577,1.50272062 34.3503826,1.50272062 C36.0530469,1.49215117 37.7507765,1.68688567 39.4068263,2.08270935 C42.9974813,2.96148015 45.1522258,5.23573899 45.9729972,8.81409369 C46.3419987,10.5052846 46.5182902,12.2328244 46.4985018,13.9636906 C46.4985018,20.7770935 46.4985018,27.5910823 46.4985018,34.405657 C46.5077071,36.0919093 46.3135624,37.7731207 45.920271,39.412893 C45.0415008,43.0053081 42.7566983,45.1495088 39.1783461,45.9702807 C37.4305962,46.3464204 35.6458526,46.5233029 33.8582713,46.4975432 C27.1456387,46.4975432 20.433592,46.4975432 13.7221311,46.4975432 C12.0064517,46.5115465 10.2952822,46.3197774 8.62526401,45.9263422 C5.01879113,45.0475714 2.85350138,42.7627673 2.03448756,39.1668372 C1.61619295,37.3389939 1.5054679,35.505878 1.5054679,33.6569443 C1.5054679,30.4324413 1.5054679,27.2073524 1.5054679,23.9816777 Z" id="path2" stroke-opacity="0" stroke="#FFFFFF" stroke-width="3" fill-rule="nonzero"/>
        <circle id="path3" fill-opacity="0" fill="#FFFFFF" cx="24" cy="24" r="24"/>
        <path d="M41.9568364,13.992 L42.4426968,8.3151093 C42.7252696,5.01347083 40.2778334,2.10789344 36.9761949,1.82532056 C36.8060359,1.81075739 36.6353326,1.80346584 36.4645515,1.80346584 L4,1.80346584 L4,1.80346584 C6.83958102,4.57247148 8.68015504,7.14293314 9.52172207,9.51485082 C10.3632891,11.8867685 10.8560484,15.3818182 11,20" id="path4" stroke="#191919" stroke-width="3" stroke-linecap="round" stroke-linejoin="round"/>
        <path d="M45,21 L45,24.5 C45,26.9852814 42.9852814,29 40.5,29 L31.3629683,29 C30.2583988,29 29.3629683,29.8954305 29.3629683,31 C29.3629683,31.1107327 29.3721646,31.2212741 29.3904623,31.3304846 L30.9056277,40.3737885 C31.3619317,43.0972509 29.5240367,45.674961 26.8005742,46.131265 C26.527548,46.1770093 26.2511944,46.2 25.9743627,46.2 L25.8697442,46.2 C23.1083204,46.2 20.8697442,43.9614237 20.8697442,41.2 C20.8697442,40.9008933 20.8965835,40.6023898 20.9499394,40.3080804 L22.5727377,31.3567678 C22.7697751,30.2699146 22.0484368,29.2291155 20.9615836,29.0320781 C20.8438598,29.0107357 20.7244584,29 20.6048157,29 L11.5,29 C9.01471863,29 7,26.9852814 7,24.5 L7,21 C7,20.4477153 7.44771525,20 8,20 L44,20 C44.5522847,20 45,20.4477153 45,21 Z" id="path5" stroke="#191919" stroke-width="3" fill-opacity="0" fill="#FFFFFF" stroke-linejoin="round"/>
        <path d="M41.9568364,13.992 L42.4426968,8.3151093 C42.7252696,5.01347083 40.2778334,2.10789344 36.9761949,1.82532056 C36.8060359,1.81075739 36.6353326,1.80346584 36.4645515,1.80346584 L4,1.80346584 L4,1.80346584 C6.37063421,4.15824642 8.00414047,6.24801502 8.9005188,8.07277164 C9.64225769,9.4751009 10.1821702,11.448177 10.5202563,13.992 L41.9568364,13.992 Z" id="path6" stroke-opacity="0" stroke="#FFFFFF" stroke-width="3" fill-opacity="0" fill="#FFFFFF" stroke-linecap="round" stroke-linejoin="round"/>
    </g>
</svg>