<svg xmlns="http://www.w3.org/2000/svg" xmlns:xlink="http://www.w3.org/1999/xlink" width="20" height="20" viewBox="0 0 48 48" fill="none" version="1.1">
	<desc>
			Created with Pixso.
	</desc>
	<defs/>
	<rect id="ic_public_resetting-重置/base/ic_public_resetting" width="48.000000" height="48.000000" fill="#FFFFFF" fill-opacity="0"/>
	<path id="path1" d="M0 23.98C0 20.23 -0.01 16.48 0 12.73C-0.01 10.91 0.22 9.1 0.66 7.35C1.65 3.63 4.07 1.42 7.79 0.56C9.65 0.16 11.56 -0.03 13.46 0C20.65 0 27.84 0 35.04 0C36.85 -0.01 38.66 0.19 40.43 0.62C44.26 1.55 46.56 3.98 47.43 7.8C47.83 9.6 48.01 11.44 47.99 13.29C47.99 20.56 47.99 27.83 47.99 35.09C48 36.89 47.8 38.69 47.38 40.44C46.44 44.27 44 46.55 40.19 47.43C38.32 47.83 36.42 48.02 34.51 47.99C27.35 47.99 20.19 47.99 13.03 47.99C11.2 48.01 9.38 47.8 7.6 47.38C3.75 46.45 1.44 44.01 0.57 40.17C0.12 38.22 0 36.27 0 34.3C0 30.86 0 27.42 0 23.98Z" fill="#FFFFFF" fill-opacity="0" fill-rule="evenodd"/>
	<circle id="path2" cx="24.000000" cy="24.000000" r="24.000000" fill="#FFFFFF" fill-opacity="0"/>
	<path id="path3" d="M20.17 40.24L24 45.5C12.12 45.5 2.5 35.87 2.5 24C2.5 12.12 12.12 2.5 24 2.5C35.87 2.5 45.5 12.12 45.5 24C45.5 29.53 43.4 34.58 39.96 38.39" stroke="#191919" stroke-opacity="1" stroke-width="3" stroke-linejoin="round" stroke-linecap="round"/>
	<path id="path4" d="M21.96 43.4L19.54 40.07C19.21 39.62 19.31 39 19.76 38.68C20.22 38.35 20.83 38.44 21.16 38.9L24.8 43.91C24.97 44.13 25.03 44.38 24.98 44.65C24.94 44.92 24.81 45.14 24.58 45.3C24.5 45.37 24.4 45.41 24.3 45.45C24.2 45.48 24.1 45.5 24 45.5C21.03 45.5 18.28 44.97 15.74 43.92C13.21 42.87 10.89 41.3 8.79 39.2C6.69 37.1 5.12 34.78 4.07 32.25C3.02 29.71 2.5 26.96 2.5 24C2.5 21.03 3.02 18.28 4.07 15.74C5.12 13.21 6.69 10.89 8.79 8.79C10.89 6.69 13.21 5.12 15.74 4.07C18.28 3.02 21.03 2.5 24 2.5C26.96 2.5 29.71 3.02 32.25 4.07C34.78 5.12 37.1 6.69 39.2 8.79C41.3 10.89 42.87 13.21 43.92 15.74C44.97 18.28 45.5 21.03 45.5 24C45.5 26.76 45.03 29.35 44.1 31.75C43.18 34.14 41.8 36.36 39.96 38.39C39.59 38.81 38.96 38.84 38.55 38.47C38.13 38.09 38.1 37.47 38.48 37.05C40.14 35.21 41.39 33.2 42.23 31.03C43.07 28.85 43.5 26.5 43.5 24C43.5 21.3 43.02 18.81 42.07 16.51C41.12 14.21 39.69 12.11 37.78 10.21C35.88 8.3 33.78 6.87 31.48 5.92C29.18 4.97 26.69 4.5 24 4.5C21.3 4.5 18.81 4.97 16.51 5.92C14.21 6.87 12.11 8.3 10.21 10.21C8.3 12.11 6.87 14.21 5.92 16.51C4.97 18.81 4.5 21.3 4.5 24C4.5 26.69 4.97 29.18 5.92 31.48C6.87 33.78 8.3 35.88 10.21 37.78C12.11 39.69 14.21 41.12 16.51 42.07C18.22 42.78 20.04 43.22 21.96 43.4Z" fill="#FFFFFF" fill-opacity="0" fill-rule="evenodd"/>
	<path id="path4" d="M19.54 40.07C19.21 39.62 19.31 39 19.76 38.68C20.22 38.35 20.83 38.44 21.16 38.9L24.8 43.91C24.97 44.13 25.03 44.38 24.98 44.65C24.94 44.92 24.81 45.14 24.58 45.3C24.5 45.37 24.4 45.41 24.3 45.45C24.2 45.48 24.1 45.5 24 45.5C21.03 45.5 18.28 44.97 15.74 43.92C13.21 42.87 10.89 41.3 8.79 39.2C6.69 37.1 5.12 34.78 4.07 32.25C3.02 29.71 2.5 26.96 2.5 24C2.5 21.03 3.02 18.28 4.07 15.74C5.12 13.21 6.69 10.89 8.79 8.79C10.89 6.69 13.21 5.12 15.74 4.07C18.28 3.02 21.03 2.5 24 2.5C26.96 2.5 29.71 3.02 32.25 4.07C34.78 5.12 37.1 6.69 39.2 8.79C41.3 10.89 42.87 13.21 43.92 15.74C44.97 18.28 45.5 21.03 45.5 24C45.5 26.76 45.03 29.35 44.1 31.75C43.18 34.14 41.8 36.36 39.96 38.39C39.59 38.81 38.96 38.84 38.55 38.47C38.13 38.09 38.1 37.47 38.48 37.05C40.14 35.21 41.39 33.2 42.23 31.03C43.07 28.85 43.5 26.5 43.5 24C43.5 21.3 43.02 18.81 42.07 16.51C41.12 14.21 39.69 12.11 37.78 10.21C35.88 8.3 33.78 6.87 31.48 5.92C29.18 4.97 26.69 4.5 24 4.5C21.3 4.5 18.81 4.97 16.51 5.92C14.21 6.87 12.11 8.3 10.21 10.21C8.3 12.11 6.87 14.21 5.92 16.51C4.97 18.81 4.5 21.3 4.5 24C4.5 26.69 4.97 29.18 5.92 31.48C6.87 33.78 8.3 35.88 10.21 37.78C12.11 39.69 14.21 41.12 16.51 42.07C18.22 42.78 20.04 43.22 21.96 43.4L19.54 40.07Z" stroke="#FFFFFF" stroke-opacity="0" stroke-width="3"/>
</svg>