<svg xmlns="http://www.w3.org/2000/svg" xmlns:xlink="http://www.w3.org/1999/xlink" width="40" height="40" viewBox="0 0 48 48" fill="none" version="1.1">
	<desc>
			Created with Pixso.
	</desc>
	<defs></defs>
	<rect id="ic_ict_portal_server-门户服务器/base/ic_ict_portal_server" width="48.000000" height="48.000000" fill="#FFFFFF" fill-opacity="0"></rect>
	<path id="path1" d="M0 23.98C0 20.23 -0.01 16.48 0 12.73C-0.01 10.91 0.22 9.1 0.66 7.35C1.65 3.63 4.07 1.42 7.79 0.56C9.65 0.16 11.56 -0.03 13.46 0C20.65 0 27.84 0 35.04 0C36.85 -0.01 38.66 0.19 40.43 0.62C44.26 1.55 46.56 3.98 47.43 7.8C47.83 9.6 48.01 11.44 47.99 13.29C47.99 20.56 47.99 27.83 47.99 35.09C48 36.89 47.8 38.69 47.38 40.44C46.44 44.27 44 46.55 40.19 47.43C38.32 47.83 36.42 48.02 34.51 47.99C27.35 47.99 20.19 47.99 13.03 47.99C11.2 48.01 9.38 47.8 7.6 47.38C3.75 46.45 1.44 44.01 0.57 40.17C0.12 38.22 0 36.27 0 34.3C0 30.86 0 27.42 0 23.98Z" fill="#FFFFFF" fill-opacity="0" fill-rule="evenodd"></path>
	<circle id="path2" cx="24.000000" cy="24.000000" r="24.000000" fill="#E6F5FD" fill-opacity="1"></circle>
	<rect id="path3" x="13.75" y="13.75" rx="3" width="20.5" height="8.75" fill="#5CABE9" fill-opacity="1"></rect>
	<rect id="path3" x="13.75" y="13.75" rx="3" width="20.5" height="8.75" stroke="#5CABE9" stroke-opacity="1.000000" stroke-width="2.4"></rect>
	<rect id="path4" x="13.75" y="25.5" rx="3" width="20.5" height="8.75" fill="#0067D1" fill-opacity="1"></rect>
	<rect id="path4" x="13.75" y="25.5" rx="3" width="20.5" height="8.75" stroke="#0067D1" stroke-opacity="1.000000" stroke-width="2.4"></rect>
	<path id="path5" d="M28.25 18.12L30.75 18.12" stroke="#FFFFFF" stroke-opacity="1.000000" stroke-width="2.4" stroke-linecap="round"></path>
	<path id="path6" d="M28.25 29.87L30.75 29.87" stroke="#FFFFFF" stroke-opacity="1.000000" stroke-width="2.4" stroke-linecap="round"></path>
</svg>