<svg xmlns="http://www.w3.org/2000/svg" xmlns:xlink="http://www.w3.org/1999/xlink" width="40" height="40" viewBox="0 0 48 48" version="1.1">
    <title>ic_huawei_cloud_hecs_round_bottom2</title>
    <g id="ic_huawei_cloud_hecs_round_bottom2" stroke="none" stroke-width="2.4" fill="none" fill-rule="evenodd">
        <path d="M1.5054679,23.9816621 C1.5054679,20.4665814 1.49316512,16.9515006 1.5054679,13.4364198 C1.49839598,11.7354754 1.70745964,10.0405243 2.1276372,8.39227893 C3.04858836,4.90356126 5.32108808,2.83317869 8.80629066,2.02998273 C10.5538164,1.65241434 12.3387234,1.47551572 14.1263654,1.50272062 C20.8671186,1.50272062 27.6084577,1.50272062 34.3503826,1.50272062 C36.0530469,1.49215117 37.7507765,1.68688554 39.4068263,2.08270894 C42.9974813,2.96147914 45.1522258,5.2357364 45.9729972,8.81408862 C46.3419987,10.5052784 46.5182902,12.232817 46.4985018,13.9636819 C46.4985018,20.7770802 46.4985018,27.5910643 46.4985018,34.4056342 C46.5077071,36.0918853 46.3135624,37.7730956 45.920271,39.4128667 C45.0415008,43.0052793 42.7566983,45.1494786 39.1783461,45.9702499 C37.4305962,46.3463893 35.6458526,46.5232717 33.8582713,46.497512 C27.1456387,46.497512 20.433592,46.497512 13.7221311,46.497512 C12.0064517,46.5115153 10.2952822,46.3197463 8.62526401,45.9263114 C5.01879113,45.0475412 2.85350138,42.7627387 2.03448756,39.1668111 C1.61619295,37.3389691 1.5054679,35.5058545 1.5054679,33.656922 C1.5054679,30.4324212 1.5054679,27.2073346 1.5054679,23.9816621 Z" id="path1" stroke-opacity="0" stroke="#FFFFFF" stroke-width="2.4" fill-opacity="0" fill="#FFFFFF" fill-rule="nonzero"></path>
        <path d="M1.5054679,23.9816621 C1.5054679,20.4665814 1.49316512,16.9515006 1.5054679,13.4364198 C1.49839598,11.7354754 1.70745964,10.0405243 2.1276372,8.39227893 C3.04858836,4.90356126 5.32108808,2.83317869 8.80629066,2.02998273 C10.5538164,1.65241434 12.3387234,1.47551572 14.1263654,1.50272062 C20.8671186,1.50272062 27.6084577,1.50272062 34.3503826,1.50272062 C36.0530469,1.49215117 37.7507765,1.68688554 39.4068263,2.08270894 C42.9974813,2.96147914 45.1522258,5.2357364 45.9729972,8.81408862 C46.3419987,10.5052784 46.5182902,12.232817 46.4985018,13.9636819 C46.4985018,20.7770802 46.4985018,27.5910643 46.4985018,34.4056342 C46.5077071,36.0918853 46.3135624,37.7730956 45.920271,39.4128667 C45.0415008,43.0052793 42.7566983,45.1494786 39.1783461,45.9702499 C37.4305962,46.3463893 35.6458526,46.5232717 33.8582713,46.497512 C27.1456387,46.497512 20.433592,46.497512 13.7221311,46.497512 C12.0064517,46.5115153 10.2952822,46.3197463 8.62526401,45.9263114 C5.01879113,45.0475412 2.85350138,42.7627387 2.03448756,39.1668111 C1.61619295,37.3389691 1.5054679,35.5058545 1.5054679,33.656922 C1.5054679,30.4324212 1.5054679,27.2073346 1.5054679,23.9816621 Z" id="path2" stroke-opacity="0" stroke="#FFFFFF" stroke-width="2.4" opacity="0.200000003" fill-rule="nonzero"></path>
        <circle id="path3" fill="#E6F5FD" cx="24" cy="24" r="24"></circle>
        <path d="M18.0441176,32 C15.1202572,32 12.75,29.6121853 12.75,26.6666667 C12.75,23.9356753 14.7875702,21.6841091 17.4147796,21.3706245 C17.7268718,18.3528446 20.2598058,16 23.3382353,16 C25.9350074,16 28.1436287,17.6741813 28.9585606,20.0095569 L29.1185103,20.0025581 L29.2941176,20 C32.5834606,20 35.25,22.6862915 35.25,26 C35.25,29.3137085 32.5834606,32 29.2941176,32 L18.0441176,32 Z" id="path4" stroke="#0067D1" fill="#0067D1" stroke-linecap="round" stroke-linejoin="round"></path>
        <path d="M19.75,23.5 L28.25,23.5 C29.7687831,23.5 31,24.7312169 31,26.25 C31,27.7687831 29.7687831,29 28.25,29 L19.75,29 C18.2312169,29 17,27.7687831 17,26.25 C17,24.7312169 18.2312169,23.5 19.75,23.5 Z" id="path5" stroke="#FFFFFF" fill="#E6F5FD" stroke-linecap="round" stroke-linejoin="round" stroke-opacity="0"></path>
        <circle id="path6" stroke="#0067D1" fill="#0067D1" cx="28.5" cy="26.25" r="1"></circle>
        <line x1="19" y1="26.25" x2="26" y2="26.25" id="path7" stroke="#0067D1" stroke-linecap="round" stroke-linejoin="round"></line>
    </g>
</svg>