<svg xmlns="http://www.w3.org/2000/svg" xmlns:xlink="http://www.w3.org/1999/xlink" width="40" height="40" viewBox="0 0 48 48" fill="none" version="1.1">
	<desc>
			Created with Pixso.
	</desc>
	<defs></defs>
	<rect id="ic_ict_Servers-服务器/base/ic_ict_Servers" width="48.000000" height="48.000000" fill="#FFFFFF" fill-opacity="0"></rect>
	<path id="path1" d="M0 23.98C0 20.23 -0.01 16.48 0 12.73C-0.01 10.91 0.22 9.1 0.66 7.35C1.65 3.63 4.07 1.42 7.79 0.56C9.65 0.16 11.56 -0.03 13.46 0C20.65 0 27.84 0 35.04 0C36.85 -0.01 38.66 0.19 40.43 0.62C44.26 1.55 46.56 3.98 47.43 7.8C47.83 9.6 48.01 11.44 47.99 13.29C47.99 20.56 47.99 27.83 47.99 35.09C48 36.89 47.8 38.69 47.38 40.44C46.44 44.27 44 46.55 40.19 47.43C38.32 47.83 36.42 48.02 34.51 47.99C27.35 47.99 20.19 47.99 13.03 47.99C11.2 48.01 9.38 47.8 7.6 47.38C3.75 46.45 1.44 44.01 0.57 40.17C0.12 38.22 0 36.27 0 34.3C0 30.86 0 27.42 0 23.98Z" fill="#FFFFFF" fill-opacity="0" fill-rule="evenodd"></path>
	<circle id="path2" cx="24.000000" cy="24.000000" r="24.000000" fill="#E6F5FD" fill-opacity="1"></circle>
	<path id="path3" d="M21.48 13L14.67 13C13.98 13 13.43 13.54 13.43 14.22L13.43 33.77C13.43 34.45 13.98 35 14.67 35L21.48 35C22.16 35 22.72 34.45 22.72 33.77L22.72 14.22C22.72 13.54 22.16 13 21.48 13ZM33.32 13L26.51 13C25.83 13 25.27 13.54 25.27 14.22L25.27 33.77C25.27 34.45 25.83 35 26.51 35L33.32 35C34.01 35 34.56 34.45 34.56 33.77L34.56 14.22C34.56 13.54 34.01 13 33.32 13Z" fill="#0067D1" fill-opacity="1" fill-rule="evenodd"></path>
	<path id="paht4" d="M21.48 13C22.16 13 22.72 13.54 22.72 14.22L22.72 33.77C22.72 34.45 22.16 35 21.48 35L14.67 35C13.98 35 13.43 34.45 13.43 33.77L13.43 14.22C13.43 13.54 13.98 13 14.67 13L21.48 13ZM33.32 13C34.01 13 34.56 13.54 34.56 14.22L34.56 33.77C34.56 34.45 34.01 35 33.32 35L26.51 35C25.83 35 25.27 34.45 25.27 33.77L25.27 14.22C25.27 13.54 25.83 13 26.51 13L33.32 13Z" stroke="#0067D1" stroke-opacity="1.000000" stroke-width="2.4"></path>
	<path id="path5" d="M16.28 18.64L19.87 18.64M16.28 23.38L19.87 23.38M28.12 18.64L31.71 18.64M28.12 23.38L31.71 23.38" stroke="#FFFFFF" stroke-opacity="1" stroke-width="2.4" stroke-linecap="round"></path>
</svg>