<svg xmlns="http://www.w3.org/2000/svg" xmlns:xlink="http://www.w3.org/1999/xlink" width="40" height="40" viewBox="0 0 48 48" version="1.1">
    <title>ic_ict_built_server_round_bottom2</title>
    <g id="ic_ict_built_server_round_bottom2" stroke="none" stroke-width="2.4" fill="none" fill-rule="evenodd">
        <path d="M1.5054679,23.9816777 C1.5054679,20.4665945 1.49316512,16.9515113 1.5054679,13.4364281 C1.49839598,11.7354825 1.70745964,10.0405302 2.1276372,8.39228371 C3.04858836,4.90356362 5.32108808,2.83317961 8.80629066,2.0299831 C10.5538164,1.65241445 12.3387234,1.4755157 14.1263654,1.50272062 C20.8671186,1.50272062 27.6084577,1.50272062 34.3503826,1.50272062 C36.0530469,1.49215117 37.7507765,1.68688567 39.4068263,2.08270935 C42.9974813,2.96148015 45.1522258,5.23573899 45.9729972,8.81409369 C46.3419987,10.5052846 46.5182902,12.2328244 46.4985018,13.9636906 C46.4985018,20.7770935 46.4985018,27.5910823 46.4985018,34.405657 C46.5077071,36.0919093 46.3135624,37.7731207 45.920271,39.412893 C45.0415008,43.0053081 42.7566983,45.1495088 39.1783461,45.9702807 C37.4305962,46.3464204 35.6458526,46.5233029 33.8582713,46.4975432 C27.1456387,46.4975432 20.433592,46.4975432 13.7221311,46.4975432 C12.0064517,46.5115465 10.2952822,46.3197774 8.62526401,45.9263422 C5.01879113,45.0475714 2.85350138,42.7627673 2.03448756,39.1668372 C1.61619295,37.3389939 1.5054679,35.505878 1.5054679,33.6569443 C1.5054679,30.4324413 1.5054679,27.2073524 1.5054679,23.9816777 Z" id="path1" stroke-opacity="0" stroke="#FFFFFF" stroke-width="2.4" fill-opacity="0" fill="#FFFFFF" fill-rule="nonzero"></path>
        <path d="M1.5054679,23.9816777 C1.5054679,20.4665945 1.49316512,16.9515113 1.5054679,13.4364281 C1.49839598,11.7354825 1.70745964,10.0405302 2.1276372,8.39228371 C3.04858836,4.90356362 5.32108808,2.83317961 8.80629066,2.0299831 C10.5538164,1.65241445 12.3387234,1.4755157 14.1263654,1.50272062 C20.8671186,1.50272062 27.6084577,1.50272062 34.3503826,1.50272062 C36.0530469,1.49215117 37.7507765,1.68688567 39.4068263,2.08270935 C42.9974813,2.96148015 45.1522258,5.23573899 45.9729972,8.81409369 C46.3419987,10.5052846 46.5182902,12.2328244 46.4985018,13.9636906 C46.4985018,20.7770935 46.4985018,27.5910823 46.4985018,34.405657 C46.5077071,36.0919093 46.3135624,37.7731207 45.920271,39.412893 C45.0415008,43.0053081 42.7566983,45.1495088 39.1783461,45.9702807 C37.4305962,46.3464204 35.6458526,46.5233029 33.8582713,46.4975432 C27.1456387,46.4975432 20.433592,46.4975432 13.7221311,46.4975432 C12.0064517,46.5115465 10.2952822,46.3197774 8.62526401,45.9263422 C5.01879113,45.0475714 2.85350138,42.7627673 2.03448756,39.1668372 C1.61619295,37.3389939 1.5054679,35.505878 1.5054679,33.6569443 C1.5054679,30.4324413 1.5054679,27.2073524 1.5054679,23.9816777 Z" id="path2" stroke-opacity="0" stroke="#FFFFFF" stroke-width="2.4" opacity="0.200000003" fill-rule="nonzero"></path>
        <circle id="path3" fill="#E6F5FD" cx="24" cy="24" r="24"></circle>
        <path d="M18.5,20 L18.5,28 M29.5,20 L29.5,28" id="path4" stroke="#FFFFFF" stroke-linecap="round" stroke-linejoin="round" stroke-opacity="0"></path>
        <path d="M18.5,19.5 C18.7761424,19.5 19,19.7238576 19,20 L19,28 C19,28.2761424 18.7761424,28.5 18.5,28.5 C18.2238576,28.5 18,28.2761424 18,28 L18,20 C18,19.7238576 18.2238576,19.5 18.5,19.5 Z M29.5,19.5 C29.7761424,19.5 30,19.7238576 30,20 L30,28 C30,28.2761424 29.7761424,28.5 29.5,28.5 C29.2238576,28.5 29,28.2761424 29,28 L29,20 C29,19.7238576 29.2238576,19.5 29.5,19.5 Z" id="path5" stroke="#5CABE9" fill="#5CABE9" fill-rule="nonzero"></path>
        <path d="M14,13 L34,13 C34.5522847,13 35,13.4477153 35,14 L35,19 C35,19.5522847 34.5522847,20 34,20 L14,20 C13.4477153,20 13,19.5522847 13,19 L13,14 C13,13.4477153 13.4477153,13 14,13 Z M14,28 L34,28 C34.5522847,28 35,28.4477153 35,29 L35,34 C35,34.5522847 34.5522847,35 34,35 L14,35 C13.4477153,35 13,34.5522847 13,34 L13,29 C13,28.4477153 13.4477153,28 14,28 Z" id="path6" stroke="#0067D1" fill="#0067D1" stroke-linejoin="round"></path>
        <path d="M24.5,31.5 L27.5,31.5 M18.5,31.5 L21.5,31.5 M15,31.5 L15.5,31.5 M15,16.5 L15.5,16.5" id="path7" stroke="#E6F5FD" stroke-linecap="round" stroke-linejoin="round"></path>
    </g>
</svg>